<mxfile host="app.diagrams.net" modified="2024-03-06T08:22:43.564Z" agent="Mozilla/5.0 (Macintosh; Intel Mac OS X 10_15_6) AppleWebKit/537.36 (KHTML, like Gecko) Chrome/108.0.5359.95 Safari/537.36" version="24.0.2" etag="AfnTKa8ZmKta7GlH4REl" type="github">
  <diagram name="第 1 页" id="DTEnMfCUto97bQmpxiS1">
    <mxGraphModel>
      <root>
        <mxCell id="0" />
        <mxCell id="1" parent="0" />
      </root>
    </mxGraphModel>
  </diagram>
</mxfile>
